<svg width="28" height="29" viewBox="0 0 28 29" fill="none" xmlns="http://www.w3.org/2000/svg">
<path d="M26 14.5C26 21.1274 20.6274 26.5 14 26.5C7.37258 26.5 2 21.1274 2 14.5C2 7.87258 7.37258 2.5 14 2.5C20.6274 2.5 26 7.87258 26 14.5Z" fill="#1CBDE7"/>
<path fill-rule="evenodd" clip-rule="evenodd" d="M28 14.5C28 22.232 21.732 28.5 14 28.5C6.26801 28.5 0 22.232 0 14.5C0 6.76801 6.26801 0.5 14 0.5C21.732 0.5 28 6.76801 28 14.5ZM14 26.5C20.6274 26.5 26 21.1274 26 14.5C26 7.87258 20.6274 2.5 14 2.5C7.37258 2.5 2 7.87258 2 14.5C2 21.1274 7.37258 26.5 14 26.5Z" fill="white"/>
<path fill-rule="evenodd" clip-rule="evenodd" d="M19.5191 8.07854L19.513 7.98982L19.5123 7.98306C19.4892 7.815 19.4061 7.66097 19.2782 7.54947C19.1504 7.43797 18.9865 7.37653 18.8168 7.37653C17.992 7.37653 17.2009 7.70419 16.6177 8.28744C16.0344 8.87068 15.7068 9.66174 15.7068 10.4866L15.7065 16.306L15.7124 16.3947L15.7133 16.4015C15.7364 16.5695 15.8196 16.7236 15.9474 16.8351C16.0752 16.9466 16.2391 17.008 16.4088 17.008H18.1148V21.6234H19.5188L19.5191 8.07854ZM19.2125 7.62484C19.2262 7.63679 19.2393 7.64931 19.2518 7.66235ZM18.2148 8.7833C18.2148 8.78329 18.2148 8.7833 18.2148 8.7833ZM17.4624 9.44881C17.6343 9.22448 17.8586 9.04692 18.1148 8.93117V15.604H17.1108V10.4883L17.1155 10.3541C17.1412 10.0252 17.2617 9.71074 17.4624 9.44881Z" fill="white"/>
<path fill-rule="evenodd" clip-rule="evenodd" d="M14.703 8.07854L14.6969 7.98982L14.6962 7.98306C14.6731 7.815 14.59 7.66097 14.4621 7.54947C14.3343 7.43797 14.1704 7.37653 14.0008 7.37653C13.8146 7.37653 13.636 7.45049 13.5044 7.58214C13.3727 7.71379 13.2987 7.89235 13.2987 8.07854V11.2874L13.2933 11.4321C13.2645 11.812 13.1228 12.1746 12.8862 12.4733C12.6778 12.7362 12.4044 12.9389 12.0941 13.062L12.0943 8.07854L12.0884 7.9898L12.0875 7.98303C12.0633 7.80683 11.973 7.64639 11.8351 7.53415C11.6971 7.42191 11.5216 7.36622 11.3442 7.37834C11.1667 7.39047 11.0005 7.4695 10.8791 7.59946C10.7577 7.72943 10.6901 7.90067 10.69 8.07854V13.0629C9.98445 12.783 9.48535 12.0947 9.48535 11.2892L9.48558 8.07854L9.47973 7.9898L9.4788 7.98303C9.45455 7.80683 9.36433 7.64639 9.22635 7.53415C9.08838 7.42191 8.91294 7.36622 8.73549 7.37834C8.55804 7.39047 8.3918 7.4695 8.27038 7.59946C8.14895 7.72943 8.08138 7.90067 8.08133 8.07854L8.0813 11.2892L8.08533 11.4586L8.08548 11.4614C8.12413 12.2013 8.40973 12.9069 8.89661 13.4653C9.36532 14.0029 9.99451 14.3743 10.6901 14.5254C10.6904 15.4207 10.6948 21.0709 10.7028 21.5251L10.7045 21.6235L12.0926 21.6217L12.094 21.5233C12.0982 21.2331 12.0955 16.8855 12.0944 15.1411L12.0941 14.5255C13.5848 14.2028 14.7028 12.8771 14.7028 11.2892L14.703 8.07854ZM12.9645 12.5354C12.7151 12.8501 12.3771 13.0829 11.9941 13.2036C12.0278 13.193 12.0611 13.1815 12.0941 13.1692C12.4359 13.0413 12.7371 12.8225 12.9645 12.5354ZM10.79 8.07854V13.2044C10.7489 13.1915 10.7083 13.1773 10.6684 13.1618C10.6756 13.1646 10.6828 13.1673 10.69 13.17C10.723 13.1824 10.7563 13.1938 10.79 13.2044V8.07854ZM10.79 14.4438C10.79 14.4438 10.79 14.4438 10.79 14.4438ZM11.9944 15.0187L11.9941 14.4618C11.9941 14.5399 11.9942 14.7373 11.9944 15.0187ZM14.3964 7.62484C14.4101 7.63679 14.4232 7.64931 14.4357 7.66235Z" fill="white"/>
</svg>
