<svg width="28" height="29" viewBox="0 0 28 29" fill="none" xmlns="http://www.w3.org/2000/svg">
<path d="M18.8805 26.0651C21.2047 22.8027 23.4062 16.25 23.975 11.8923V9.81293C23.8401 7.25936 22.7184 4.85893 20.8478 3.12078C18.9771 1.38264 16.5048 0.443519 13.9551 0.502631C11.4054 0.561742 8.97891 1.61443 7.19041 3.43741C5.4019 5.26039 4.39203 7.71025 4.375 10.2673V10.4475C4.39018 10.9324 4.44198 11.4153 4.52994 11.8923C4.53105 11.8982 4.53105 11.9043 4.52994 11.9102C4.8956 14.6048 6.04603 21.2724 9.47642 26.0783C10.0117 26.8285 10.7179 27.4397 11.5364 27.861C12.3549 28.2822 13.2619 28.5013 14.1819 28.5C15.1019 28.4987 16.0083 28.2771 16.8256 27.8535C17.6428 27.43 18.3474 26.8168 18.8805 26.0651Z" fill="#E36161"/>
<path d="M14.5973 13.1178C15.9399 12.8999 16.8517 11.6348 16.6338 10.2921C16.4158 8.94939 15.1507 8.03762 13.808 8.25557C12.4653 8.47352 11.5536 9.73865 11.7715 11.0813C11.9894 12.424 13.2546 13.3358 14.5973 13.1178Z" fill="white"/>
</svg>
