<svg width="28" height="29" viewBox="0 0 28 29" fill="none" xmlns="http://www.w3.org/2000/svg">
<path d="M18.8805 26.0651C21.2047 22.8027 23.4062 16.25 23.975 11.8923V9.81293C23.8401 7.25936 22.7184 4.85893 20.8478 3.12078C18.9771 1.38264 16.5048 0.443519 13.9551 0.502631C11.4054 0.561742 8.97891 1.61443 7.19041 3.43741C5.4019 5.26039 4.39203 7.71025 4.375 10.2673V10.4475C4.39018 10.9324 4.44198 11.4153 4.52994 11.8923C4.53105 11.8982 4.53105 11.9043 4.52994 11.9102C4.8956 14.6048 6.04603 21.2724 9.47642 26.0783C10.0117 26.8285 10.7179 27.4397 11.5364 27.861C12.3549 28.2822 13.2619 28.5013 14.1819 28.5C15.1019 28.4987 16.0083 28.2771 16.8256 27.8535C17.6428 27.43 18.3474 26.8168 18.8805 26.0651Z" fill="#1CBDE7"/>
<path fill-rule="evenodd" clip-rule="evenodd" d="M19 6.59129L18.9947 6.51656L18.9941 6.51088C18.9739 6.36932 18.9012 6.23958 18.7894 6.14567C18.6776 6.05175 18.5344 6.00001 18.386 6C17.6649 6 16.9733 6.27599 16.4633 6.76725C15.9534 7.25851 15.6669 7.9248 15.6669 8.61954L15.6667 13.5212L15.6718 13.5959L15.6727 13.6016C15.6928 13.7431 15.7655 13.8729 15.8773 13.9668C15.9891 14.0607 16.1324 14.1124 16.2807 14.1124H17.7723V17.9999H18.9998L19 6.59129ZM18.732 6.20915C18.7439 6.21922 18.7554 6.22976 18.7663 6.24075ZM17.2018 7.74545C17.3521 7.5565 17.5483 7.40695 17.7723 7.30945V12.9299H16.8945V8.62101L16.8986 8.50799C16.9211 8.23093 17.0264 7.96607 17.2018 7.74545Z" fill="white"/>
<path fill-rule="evenodd" clip-rule="evenodd" d="M14.7893 6.59129L14.784 6.51656L14.7834 6.51088C14.7632 6.36932 14.6905 6.23958 14.5787 6.14567C14.467 6.05175 14.3237 6.00001 14.1754 6C14.0126 6 13.8565 6.0623 13.7414 6.17319C13.6263 6.28407 13.5616 6.43447 13.5616 6.59129V9.29403L13.5568 9.41595C13.5317 9.73593 13.4077 10.0414 13.2009 10.2929C13.0187 10.5144 12.7797 10.6851 12.5083 10.7888L12.5085 6.59129L12.5034 6.51655L12.5026 6.51085C12.4814 6.36244 12.4025 6.22731 12.2819 6.13276C12.1613 6.03822 12.0079 5.99132 11.8527 6.00153C11.6976 6.01174 11.5523 6.07831 11.4461 6.18777C11.3399 6.29724 11.2809 6.44148 11.2808 6.59129V10.7895C10.6639 10.5538 10.2276 9.97401 10.2276 9.29563L10.2278 6.59129L10.2226 6.51655L10.2218 6.51085C10.2006 6.36244 10.1217 6.22731 10.0011 6.13276C9.88048 6.03822 9.7271 5.99132 9.57196 6.00153C9.41681 6.01174 9.27147 6.07831 9.16531 6.18777C9.05915 6.29724 9.00007 6.44148 9.00003 6.59129L9 9.29563L9.00352 9.43828L9.00365 9.44065C9.03745 10.0638 9.28714 10.6581 9.71282 11.1285C10.1226 11.5813 10.6727 11.8941 11.2808 12.0214C11.2811 12.7755 11.2849 17.5346 11.292 17.9172L11.2935 18L12.5071 17.9985L12.5083 17.9156C12.512 17.6712 12.5096 14.0093 12.5087 12.54L12.5084 12.0215C13.8117 11.7496 14.7891 10.6331 14.7891 9.29563L14.7893 6.59129ZM13.2694 10.3452C13.0514 10.6103 12.7558 10.8064 12.4209 10.9081C12.4504 10.8992 12.4795 10.8895 12.5083 10.8791C12.8072 10.7714 13.0705 10.587 13.2694 10.3452ZM11.3682 6.5913V10.9088C11.3323 10.8979 11.2968 10.8859 11.2619 10.8728C11.2682 10.8752 11.2745 10.8775 11.2808 10.8798C11.3096 10.8902 11.3388 10.8998 11.3682 10.9088V6.5913ZM12.4212 12.4369L12.4209 11.9678C12.4209 12.0336 12.421 12.1998 12.4212 12.4369ZM14.5213 6.20915C14.5333 6.21922 14.5447 6.22976 14.5556 6.24075Z" fill="white"/>
</svg>
